STARTFONT 2.1
FONT -FontForge-NewYork_26-Regular-R-Normal--12-120-72-72-P-171-MacRoman-0
SIZE 12 72 72
FONTBOUNDINGBOX 9 12 0 -2
COMMENT "Generated by fontforge, http://fontforge.sourceforge.net"
STARTPROPERTIES 32
FOUNDRY "FontForge"
FAMILY_NAME "NewYork_26"
WEIGHT_NAME "Regular"
SLANT "R"
SETWIDTH_NAME "Normal"
ADD_STYLE_NAME ""
PIXEL_SIZE 12
POINT_SIZE 120
RESOLUTION_X 72
RESOLUTION_Y 72
SPACING "P"
AVERAGE_WIDTH 171
CHARSET_REGISTRY "MacRoman"
CHARSET_ENCODING "0"
FONTNAME_REGISTRY ""
CHARSET_COLLECTIONS "MacRoman"
FONT_NAME "NewYork_26"
FACE_NAME "NewYork_26"
COPYRIGHT ""
FONT_VERSION "001.000"
FONT_ASCENT 10
FONT_DESCENT 2
UNDERLINE_POSITION -1
UNDERLINE_THICKNESS 1
X_HEIGHT 5
CAP_HEIGHT 7
RAW_ASCENT 800
RAW_DESCENT 200
NORM_SPACE 3
FIGURE_WIDTH 6
AVG_LOWERCASE_WIDTH 184
AVG_UPPERCASE_WIDTH 132
ENDPROPERTIES
CHARS 179
STARTCHAR uni0000
ENCODING 0
SWIDTH 0 0
DWIDTH 0 0
BBX 1 1 0 0
BITMAP
00
ENDCHAR
STARTCHAR uni0002
ENCODING 2
SWIDTH 0 0
DWIDTH 0 0
BBX 1 1 0 0
BITMAP
00
ENDCHAR
STARTCHAR uni0003
ENCODING 3
SWIDTH 0 0
DWIDTH 255 0
BBX 1 1 0 0
BITMAP
00
ENDCHAR
STARTCHAR uni0004
ENCODING 4
SWIDTH 0 0
DWIDTH 0 0
BBX 1 1 0 0
BITMAP
00
ENDCHAR
STARTCHAR uni0005
ENCODING 5
SWIDTH 0 0
DWIDTH 255 0
BBX 1 1 0 0
BITMAP
00
ENDCHAR
STARTCHAR uni0006
ENCODING 6
SWIDTH 0 0
DWIDTH 255 0
BBX 1 1 0 0
BITMAP
00
ENDCHAR
STARTCHAR uni0008
ENCODING 8
SWIDTH 0 0
DWIDTH 255 0
BBX 1 1 0 0
BITMAP
00
ENDCHAR
STARTCHAR uni000A
ENCODING 10
SWIDTH 0 0
DWIDTH 255 0
BBX 1 1 0 0
BITMAP
00
ENDCHAR
STARTCHAR uni000B
ENCODING 11
SWIDTH 0 0
DWIDTH 255 0
BBX 1 1 0 0
BITMAP
00
ENDCHAR
STARTCHAR uni000C
ENCODING 12
SWIDTH 0 0
DWIDTH 255 0
BBX 1 1 0 0
BITMAP
00
ENDCHAR
STARTCHAR uni000D
ENCODING 13
SWIDTH 0 0
DWIDTH 0 0
BBX 1 1 0 0
BITMAP
00
ENDCHAR
STARTCHAR uni000E
ENCODING 14
SWIDTH 0 0
DWIDTH 255 0
BBX 1 1 0 0
BITMAP
00
ENDCHAR
STARTCHAR space
ENCODING 32
SWIDTH 250 0
DWIDTH 3 0
BBX 1 1 3 -2
BITMAP
00
ENDCHAR
STARTCHAR exclam
ENCODING 33
SWIDTH 250 0
DWIDTH 3 0
BBX 1 8 1 0
BITMAP
80
80
80
80
80
80
00
80
ENDCHAR
STARTCHAR quotedbl
ENCODING 34
SWIDTH 416 0
DWIDTH 5 0
BBX 3 2 1 6
BITMAP
A0
A0
ENDCHAR
STARTCHAR numbersign
ENCODING 35
SWIDTH 500 0
DWIDTH 8 0
BBX 7 5 0 3
BITMAP
14
7E
28
FC
50
ENDCHAR
STARTCHAR dollar
ENCODING 36
SWIDTH 500 0
DWIDTH 6 0
BBX 5 10 0 -1
BITMAP
20
70
A8
A0
60
30
28
A8
70
20
ENDCHAR
STARTCHAR percent
ENCODING 37
SWIDTH 666 0
DWIDTH 10 0
BBX 8 8 1 0
BITMAP
5C
A4
A8
48
12
15
25
22
ENDCHAR
STARTCHAR ampersand
ENCODING 38
SWIDTH 666 0
DWIDTH 8 0
BBX 7 8 0 0
BITMAP
30
48
50
26
54
88
94
66
ENDCHAR
STARTCHAR quotesingle
ENCODING 39
SWIDTH 250 0
DWIDTH 3 0
BBX 1 2 1 6
BITMAP
80
80
ENDCHAR
STARTCHAR parenleft
ENCODING 40
SWIDTH 333 0
DWIDTH 5 0
BBX 3 10 1 -1
BITMAP
20
40
40
80
80
80
80
40
40
20
ENDCHAR
STARTCHAR parenright
ENCODING 41
SWIDTH 333 0
DWIDTH 5 0
BBX 3 10 1 -1
BITMAP
80
40
40
20
20
20
20
40
40
80
ENDCHAR
STARTCHAR asterisk
ENCODING 42
SWIDTH 333 0
DWIDTH 7 0
BBX 5 5 1 3
BITMAP
50
20
F8
20
50
ENDCHAR
STARTCHAR plus
ENCODING 43
SWIDTH 500 0
DWIDTH 6 0
BBX 5 5 0 1
BITMAP
20
20
F8
20
20
ENDCHAR
STARTCHAR comma
ENCODING 44
SWIDTH 250 0
DWIDTH 3 0
BBX 2 2 0 -1
BITMAP
40
80
ENDCHAR
STARTCHAR hyphen
ENCODING 45
SWIDTH 416 0
DWIDTH 5 0
BBX 4 1 0 3
BITMAP
F0
ENDCHAR
STARTCHAR period
ENCODING 46
SWIDTH 250 0
DWIDTH 3 0
BBX 1 1 1 0
BITMAP
80
ENDCHAR
STARTCHAR slash
ENCODING 47
SWIDTH 416 0
DWIDTH 6 0
BBX 4 8 1 0
BITMAP
10
10
20
20
40
40
80
80
ENDCHAR
STARTCHAR zero
ENCODING 48
SWIDTH 500 0
DWIDTH 6 0
BBX 5 8 0 0
BITMAP
70
88
88
88
88
88
88
70
ENDCHAR
STARTCHAR one
ENCODING 49
SWIDTH 500 0
DWIDTH 6 0
BBX 3 8 1 0
BITMAP
40
C0
40
40
40
40
40
E0
ENDCHAR
STARTCHAR two
ENCODING 50
SWIDTH 500 0
DWIDTH 6 0
BBX 5 8 0 0
BITMAP
70
88
08
10
20
40
88
F8
ENDCHAR
STARTCHAR three
ENCODING 51
SWIDTH 500 0
DWIDTH 6 0
BBX 5 9 0 -1
BITMAP
70
88
08
30
08
08
08
10
60
ENDCHAR
STARTCHAR four
ENCODING 52
SWIDTH 500 0
DWIDTH 6 0
BBX 5 8 0 0
BITMAP
10
20
50
90
F8
10
10
38
ENDCHAR
STARTCHAR five
ENCODING 53
SWIDTH 500 0
DWIDTH 6 0
BBX 5 9 0 -1
BITMAP
F0
80
E0
10
08
08
08
10
E0
ENDCHAR
STARTCHAR six
ENCODING 54
SWIDTH 500 0
DWIDTH 6 0
BBX 5 8 0 0
BITMAP
30
40
80
F0
88
88
88
70
ENDCHAR
STARTCHAR seven
ENCODING 55
SWIDTH 500 0
DWIDTH 6 0
BBX 5 8 0 0
BITMAP
F8
88
08
10
10
20
20
20
ENDCHAR
STARTCHAR eight
ENCODING 56
SWIDTH 500 0
DWIDTH 6 0
BBX 5 8 0 0
BITMAP
70
88
88
70
88
88
88
70
ENDCHAR
STARTCHAR nine
ENCODING 57
SWIDTH 500 0
DWIDTH 6 0
BBX 5 8 0 0
BITMAP
70
88
88
88
78
08
10
60
ENDCHAR
STARTCHAR colon
ENCODING 58
SWIDTH 250 0
DWIDTH 3 0
BBX 1 5 1 0
BITMAP
80
00
00
00
80
ENDCHAR
STARTCHAR semicolon
ENCODING 59
SWIDTH 250 0
DWIDTH 3 0
BBX 2 6 0 -1
BITMAP
40
00
00
00
40
80
ENDCHAR
STARTCHAR less
ENCODING 60
SWIDTH 333 0
DWIDTH 4 0
BBX 3 5 0 1
BITMAP
20
40
80
40
20
ENDCHAR
STARTCHAR equal
ENCODING 61
SWIDTH 416 0
DWIDTH 5 0
BBX 4 3 0 2
BITMAP
F0
00
F0
ENDCHAR
STARTCHAR greater
ENCODING 62
SWIDTH 333 0
DWIDTH 4 0
BBX 3 5 0 1
BITMAP
80
40
20
40
80
ENDCHAR
STARTCHAR question
ENCODING 63
SWIDTH 416 0
DWIDTH 6 0
BBX 4 8 1 0
BITMAP
60
90
10
20
40
40
00
40
ENDCHAR
STARTCHAR at
ENCODING 64
SWIDTH 666 0
DWIDTH 8 0
BBX 7 8 1 -1
BITMAP
38
44
9A
AA
AA
9C
40
38
ENDCHAR
STARTCHAR A
ENCODING 65
SWIDTH 666 0
DWIDTH 8 0
BBX 7 8 0 0
BITMAP
10
10
10
28
28
7C
44
EE
ENDCHAR
STARTCHAR B
ENCODING 66
SWIDTH 500 0
DWIDTH 7 0
BBX 6 8 0 0
BITMAP
F8
44
44
78
44
44
44
F8
ENDCHAR
STARTCHAR C
ENCODING 67
SWIDTH 500 0
DWIDTH 6 0
BBX 5 8 0 0
BITMAP
70
88
80
80
80
80
88
70
ENDCHAR
STARTCHAR D
ENCODING 68
SWIDTH 583 0
DWIDTH 7 0
BBX 6 8 0 0
BITMAP
F0
48
44
44
44
44
48
F0
ENDCHAR
STARTCHAR E
ENCODING 69
SWIDTH 500 0
DWIDTH 6 0
BBX 5 8 0 0
BITMAP
F8
48
40
70
40
40
48
F8
ENDCHAR
STARTCHAR F
ENCODING 70
SWIDTH 500 0
DWIDTH 6 0
BBX 5 8 0 0
BITMAP
F8
48
40
70
40
40
40
F0
ENDCHAR
STARTCHAR G
ENCODING 71
SWIDTH 500 0
DWIDTH 7 0
BBX 6 8 0 0
BITMAP
70
88
80
80
9C
88
88
70
ENDCHAR
STARTCHAR H
ENCODING 72
SWIDTH 583 0
DWIDTH 8 0
BBX 7 8 0 0
BITMAP
EE
44
44
7C
44
44
44
EE
ENDCHAR
STARTCHAR I
ENCODING 73
SWIDTH 333 0
DWIDTH 5 0
BBX 3 8 1 0
BITMAP
E0
40
40
40
40
40
40
E0
ENDCHAR
STARTCHAR J
ENCODING 74
SWIDTH 416 0
DWIDTH 5 0
BBX 5 10 0 -2
BITMAP
38
10
10
10
10
10
10
10
90
60
ENDCHAR
STARTCHAR K
ENCODING 75
SWIDTH 583 0
DWIDTH 8 0
BBX 7 8 0 0
BITMAP
EE
48
50
60
60
50
48
EE
ENDCHAR
STARTCHAR L
ENCODING 76
SWIDTH 500 0
DWIDTH 7 0
BBX 6 8 0 0
BITMAP
E0
40
40
40
40
40
44
FC
ENDCHAR
STARTCHAR M
ENCODING 77
SWIDTH 666 0
DWIDTH 10 0
BBX 9 8 0 0
BITMAP
E380
6300
6300
5500
5500
5500
4900
EB80
ENDCHAR
STARTCHAR N
ENCODING 78
SWIDTH 583 0
DWIDTH 8 0
BBX 7 8 0 0
BITMAP
CE
64
64
54
54
4C
4C
E4
ENDCHAR
STARTCHAR O
ENCODING 79
SWIDTH 583 0
DWIDTH 6 0
BBX 5 8 0 0
BITMAP
70
88
88
88
88
88
88
70
ENDCHAR
STARTCHAR P
ENCODING 80
SWIDTH 500 0
DWIDTH 7 0
BBX 6 8 0 0
BITMAP
F8
44
44
44
78
40
40
E0
ENDCHAR
STARTCHAR Q
ENCODING 81
SWIDTH 583 0
DWIDTH 6 0
BBX 5 10 0 -2
BITMAP
70
88
88
88
88
88
88
70
10
08
ENDCHAR
STARTCHAR R
ENCODING 82
SWIDTH 500 0
DWIDTH 8 0
BBX 7 8 0 0
BITMAP
F8
44
44
44
78
50
48
E6
ENDCHAR
STARTCHAR S
ENCODING 83
SWIDTH 416 0
DWIDTH 6 0
BBX 5 8 0 0
BITMAP
78
88
80
60
10
08
88
F0
ENDCHAR
STARTCHAR T
ENCODING 84
SWIDTH 500 0
DWIDTH 6 0
BBX 5 8 0 0
BITMAP
F8
A8
20
20
20
20
20
70
ENDCHAR
STARTCHAR U
ENCODING 85
SWIDTH 583 0
DWIDTH 8 0
BBX 7 8 0 0
BITMAP
EE
44
44
44
44
44
44
38
ENDCHAR
STARTCHAR V
ENCODING 86
SWIDTH 583 0
DWIDTH 8 0
BBX 7 8 0 0
BITMAP
EE
44
44
44
28
28
10
10
ENDCHAR
STARTCHAR W
ENCODING 87
SWIDTH 750 0
DWIDTH 10 0
BBX 9 8 0 0
BITMAP
FB80
5100
5100
2A00
2A00
2A00
1400
1400
ENDCHAR
STARTCHAR X
ENCODING 88
SWIDTH 500 0
DWIDTH 6 0
BBX 5 8 0 0
BITMAP
D8
50
50
20
20
50
50
D8
ENDCHAR
STARTCHAR Y
ENCODING 89
SWIDTH 500 0
DWIDTH 8 0
BBX 7 8 0 0
BITMAP
EE
44
28
28
10
10
10
38
ENDCHAR
STARTCHAR Z
ENCODING 90
SWIDTH 416 0
DWIDTH 6 0
BBX 5 8 0 0
BITMAP
F8
88
10
20
20
40
88
F8
ENDCHAR
STARTCHAR bracketleft
ENCODING 91
SWIDTH 250 0
DWIDTH 4 0
BBX 2 10 1 -1
BITMAP
C0
80
80
80
80
80
80
80
80
C0
ENDCHAR
STARTCHAR backslash
ENCODING 92
SWIDTH 416 0
DWIDTH 6 0
BBX 4 8 1 0
BITMAP
80
80
40
40
20
20
10
10
ENDCHAR
STARTCHAR bracketright
ENCODING 93
SWIDTH 250 0
DWIDTH 4 0
BBX 2 10 2 -1
BITMAP
C0
40
40
40
40
40
40
40
40
C0
ENDCHAR
STARTCHAR asciicircum
ENCODING 94
SWIDTH 333 0
DWIDTH 5 0
BBX 3 2 1 6
BITMAP
40
A0
ENDCHAR
STARTCHAR underscore
ENCODING 95
SWIDTH 500 0
DWIDTH 6 0
BBX 6 1 0 0
BITMAP
FC
ENDCHAR
STARTCHAR grave
ENCODING 96
SWIDTH 250 0
DWIDTH 3 0
BBX 2 2 0 6
BITMAP
80
40
ENDCHAR
STARTCHAR a
ENCODING 97
SWIDTH 416 0
DWIDTH 6 0
BBX 6 6 0 0
BITMAP
70
88
78
88
88
74
ENDCHAR
STARTCHAR b
ENCODING 98
SWIDTH 500 0
DWIDTH 7 0
BBX 6 8 0 0
BITMAP
40
C0
70
48
44
44
48
70
ENDCHAR
STARTCHAR c
ENCODING 99
SWIDTH 416 0
DWIDTH 6 0
BBX 5 6 0 0
BITMAP
30
48
80
80
48
30
ENDCHAR
STARTCHAR d
ENCODING 100
SWIDTH 500 0
DWIDTH 6 0
BBX 5 8 0 0
BITMAP
18
08
38
48
88
88
48
38
ENDCHAR
STARTCHAR e
ENCODING 101
SWIDTH 416 0
DWIDTH 6 0
BBX 5 6 0 0
BITMAP
70
88
F8
80
88
70
ENDCHAR
STARTCHAR f
ENCODING 102
SWIDTH 333 0
DWIDTH 5 0
BBX 5 8 0 0
BITMAP
30
48
E0
40
40
40
40
E0
ENDCHAR
STARTCHAR g
ENCODING 103
SWIDTH 416 0
DWIDTH 7 0
BBX 6 8 0 -2
BITMAP
74
88
88
70
80
78
84
78
ENDCHAR
STARTCHAR h
ENCODING 104
SWIDTH 500 0
DWIDTH 8 0
BBX 7 8 0 0
BITMAP
C0
40
58
64
44
44
44
EE
ENDCHAR
STARTCHAR i
ENCODING 105
SWIDTH 333 0
DWIDTH 4 0
BBX 3 8 0 0
BITMAP
40
00
40
C0
40
40
40
E0
ENDCHAR
STARTCHAR j
ENCODING 106
SWIDTH 250 0
DWIDTH 4 0
BBX 2 10 0 -2
BITMAP
40
00
40
C0
40
40
40
40
40
80
ENDCHAR
STARTCHAR k
ENCODING 107
SWIDTH 500 0
DWIDTH 7 0
BBX 6 8 0 0
BITMAP
40
C0
4C
50
60
50
48
EC
ENDCHAR
STARTCHAR l
ENCODING 108
SWIDTH 333 0
DWIDTH 4 0
BBX 3 8 0 0
BITMAP
40
C0
40
40
40
40
40
E0
ENDCHAR
STARTCHAR m
ENCODING 109
SWIDTH 666 0
DWIDTH 10 0
BBX 9 6 0 0
BITMAP
7600
C900
4900
4900
4900
FF80
ENDCHAR
STARTCHAR n
ENCODING 110
SWIDTH 500 0
DWIDTH 8 0
BBX 7 6 0 0
BITMAP
58
E4
44
44
44
EE
ENDCHAR
STARTCHAR o
ENCODING 111
SWIDTH 416 0
DWIDTH 6 0
BBX 5 6 0 0
BITMAP
70
88
88
88
88
70
ENDCHAR
STARTCHAR p
ENCODING 112
SWIDTH 500 0
DWIDTH 7 0
BBX 6 8 0 -2
BITMAP
70
C8
44
44
48
70
40
E0
ENDCHAR
STARTCHAR q
ENCODING 113
SWIDTH 500 0
DWIDTH 7 0
BBX 6 8 0 -2
BITMAP
3C
48
88
88
48
38
08
1C
ENDCHAR
STARTCHAR r
ENCODING 114
SWIDTH 416 0
DWIDTH 6 0
BBX 5 6 0 0
BITMAP
58
E8
40
40
40
E0
ENDCHAR
STARTCHAR s
ENCODING 115
SWIDTH 416 0
DWIDTH 5 0
BBX 4 6 0 0
BITMAP
70
90
40
20
90
E0
ENDCHAR
STARTCHAR t
ENCODING 116
SWIDTH 333 0
DWIDTH 4 0
BBX 3 7 0 0
BITMAP
40
E0
40
40
40
40
20
ENDCHAR
STARTCHAR u
ENCODING 117
SWIDTH 500 0
DWIDTH 7 0
BBX 7 6 0 0
BITMAP
CC
44
44
44
4E
34
ENDCHAR
STARTCHAR v
ENCODING 118
SWIDTH 416 0
DWIDTH 7 0
BBX 7 6 0 0
BITMAP
EE
44
28
28
10
10
ENDCHAR
STARTCHAR w
ENCODING 119
SWIDTH 583 0
DWIDTH 9 0
BBX 9 6 0 0
BITMAP
FD80
5100
2A00
2A00
1400
1400
ENDCHAR
STARTCHAR x
ENCODING 120
SWIDTH 500 0
DWIDTH 6 0
BBX 5 6 0 0
BITMAP
D8
50
20
20
50
D8
ENDCHAR
STARTCHAR y
ENCODING 121
SWIDTH 500 0
DWIDTH 7 0
BBX 7 8 0 -2
BITMAP
EE
44
28
28
10
10
20
20
ENDCHAR
STARTCHAR z
ENCODING 122
SWIDTH 416 0
DWIDTH 5 0
BBX 4 6 0 0
BITMAP
F0
90
20
40
90
F0
ENDCHAR
STARTCHAR braceleft
ENCODING 123
SWIDTH 333 0
DWIDTH 5 0
BBX 3 11 0 -2
BITMAP
20
40
40
40
40
80
40
40
40
40
20
ENDCHAR
STARTCHAR bar
ENCODING 124
SWIDTH 166 0
DWIDTH 3 0
BBX 1 11 1 -2
BITMAP
80
80
80
80
80
80
80
80
80
80
80
ENDCHAR
STARTCHAR braceright
ENCODING 125
SWIDTH 333 0
DWIDTH 5 0
BBX 3 11 2 -2
BITMAP
80
40
40
40
40
20
40
40
40
40
80
ENDCHAR
STARTCHAR asciitilde
ENCODING 126
SWIDTH 333 0
DWIDTH 5 0
BBX 4 2 0 6
BITMAP
50
A0
ENDCHAR
STARTCHAR uni007F
ENCODING 127
SWIDTH 0 0
DWIDTH 0 0
BBX 1 1 0 -2
BITMAP
00
ENDCHAR
STARTCHAR Adieresis
ENCODING 128
SWIDTH 666 0
DWIDTH 8 0
BBX 7 9 0 0
BITMAP
28
00
10
10
28
28
7C
44
EE
ENDCHAR
STARTCHAR Aring
ENCODING 129
SWIDTH 666 0
DWIDTH 8 0
BBX 7 10 0 0
BITMAP
38
44
38
10
10
28
28
7C
44
EE
ENDCHAR
STARTCHAR Ccedilla
ENCODING 130
SWIDTH 500 0
DWIDTH 6 0
BBX 5 10 0 -2
BITMAP
70
88
80
80
80
80
88
70
20
40
ENDCHAR
STARTCHAR Eacute
ENCODING 131
SWIDTH 500 0
DWIDTH 6 0
BBX 5 10 0 0
BITMAP
10
20
F8
48
40
70
40
40
48
F8
ENDCHAR
STARTCHAR Ntilde
ENCODING 132
SWIDTH 583 0
DWIDTH 8 0
BBX 7 10 0 0
BITMAP
34
58
CE
64
64
54
54
4C
4C
E4
ENDCHAR
STARTCHAR Odieresis
ENCODING 133
SWIDTH 583 0
DWIDTH 6 0
BBX 5 10 0 0
BITMAP
50
00
70
88
88
88
88
88
88
70
ENDCHAR
STARTCHAR Udieresis
ENCODING 134
SWIDTH 583 0
DWIDTH 8 0
BBX 7 10 0 0
BITMAP
28
00
EE
44
44
44
44
44
44
38
ENDCHAR
STARTCHAR aacute
ENCODING 135
SWIDTH 416 0
DWIDTH 6 0
BBX 6 9 0 0
BITMAP
10
20
00
70
88
78
88
88
74
ENDCHAR
STARTCHAR agrave
ENCODING 136
SWIDTH 416 0
DWIDTH 6 0
BBX 6 9 0 0
BITMAP
40
20
00
70
88
78
88
88
74
ENDCHAR
STARTCHAR acircumflex
ENCODING 137
SWIDTH 416 0
DWIDTH 6 0
BBX 6 9 0 0
BITMAP
20
50
00
70
88
78
88
88
74
ENDCHAR
STARTCHAR adieresis
ENCODING 138
SWIDTH 416 0
DWIDTH 6 0
BBX 6 8 0 0
BITMAP
50
00
70
88
78
88
88
74
ENDCHAR
STARTCHAR atilde
ENCODING 139
SWIDTH 416 0
DWIDTH 6 0
BBX 6 9 0 0
BITMAP
28
50
00
70
88
78
88
88
74
ENDCHAR
STARTCHAR aring
ENCODING 140
SWIDTH 416 0
DWIDTH 6 0
BBX 6 10 0 0
BITMAP
30
48
30
00
70
88
78
88
88
74
ENDCHAR
STARTCHAR ccedilla
ENCODING 141
SWIDTH 416 0
DWIDTH 6 0
BBX 5 8 0 -2
BITMAP
30
48
80
80
48
30
10
20
ENDCHAR
STARTCHAR eacute
ENCODING 142
SWIDTH 416 0
DWIDTH 6 0
BBX 5 9 0 0
BITMAP
10
20
00
70
88
F8
80
88
70
ENDCHAR
STARTCHAR egrave
ENCODING 143
SWIDTH 416 0
DWIDTH 6 0
BBX 5 9 0 0
BITMAP
40
20
00
70
88
F8
80
88
70
ENDCHAR
STARTCHAR ecircumflex
ENCODING 144
SWIDTH 416 0
DWIDTH 6 0
BBX 5 9 0 0
BITMAP
20
50
00
70
88
F8
80
88
70
ENDCHAR
STARTCHAR edieresis
ENCODING 145
SWIDTH 416 0
DWIDTH 6 0
BBX 5 8 0 0
BITMAP
50
00
70
88
F8
80
88
70
ENDCHAR
STARTCHAR iacute
ENCODING 146
SWIDTH 333 0
DWIDTH 4 0
BBX 3 9 0 0
BITMAP
40
80
00
40
C0
40
40
40
E0
ENDCHAR
STARTCHAR igrave
ENCODING 147
SWIDTH 333 0
DWIDTH 4 0
BBX 3 9 0 0
BITMAP
80
40
00
40
C0
40
40
40
E0
ENDCHAR
STARTCHAR icircumflex
ENCODING 148
SWIDTH 333 0
DWIDTH 4 0
BBX 3 9 0 0
BITMAP
40
A0
00
40
C0
40
40
40
E0
ENDCHAR
STARTCHAR idieresis
ENCODING 149
SWIDTH 333 0
DWIDTH 4 0
BBX 3 8 0 0
BITMAP
A0
00
40
C0
40
40
40
E0
ENDCHAR
STARTCHAR ntilde
ENCODING 150
SWIDTH 500 0
DWIDTH 8 0
BBX 7 9 0 0
BITMAP
28
50
00
58
E4
44
44
44
EE
ENDCHAR
STARTCHAR oacute
ENCODING 151
SWIDTH 416 0
DWIDTH 6 0
BBX 5 9 0 0
BITMAP
10
20
00
70
88
88
88
88
70
ENDCHAR
STARTCHAR ograve
ENCODING 152
SWIDTH 416 0
DWIDTH 6 0
BBX 5 9 0 0
BITMAP
40
20
00
70
88
88
88
88
70
ENDCHAR
STARTCHAR ocircumflex
ENCODING 153
SWIDTH 416 0
DWIDTH 6 0
BBX 5 9 0 0
BITMAP
20
50
00
70
88
88
88
88
70
ENDCHAR
STARTCHAR odieresis
ENCODING 154
SWIDTH 416 0
DWIDTH 6 0
BBX 5 8 0 0
BITMAP
50
00
70
88
88
88
88
70
ENDCHAR
STARTCHAR otilde
ENCODING 155
SWIDTH 416 0
DWIDTH 6 0
BBX 5 9 0 0
BITMAP
28
50
00
70
88
88
88
88
70
ENDCHAR
STARTCHAR uacute
ENCODING 156
SWIDTH 500 0
DWIDTH 7 0
BBX 7 9 0 0
BITMAP
10
20
00
CC
44
44
44
4E
34
ENDCHAR
STARTCHAR ugrave
ENCODING 157
SWIDTH 500 0
DWIDTH 7 0
BBX 7 9 0 0
BITMAP
20
10
00
CC
44
44
44
4E
34
ENDCHAR
STARTCHAR ucircumflex
ENCODING 158
SWIDTH 500 0
DWIDTH 7 0
BBX 7 9 0 0
BITMAP
10
28
00
CC
44
44
44
4E
34
ENDCHAR
STARTCHAR udieresis
ENCODING 159
SWIDTH 500 0
DWIDTH 7 0
BBX 7 8 0 0
BITMAP
28
00
CC
44
44
44
4E
34
ENDCHAR
STARTCHAR dagger
ENCODING 160
SWIDTH 333 0
DWIDTH 5 0
BBX 3 5 1 4
BITMAP
40
E0
40
40
40
ENDCHAR
STARTCHAR degree
ENCODING 161
SWIDTH 333 0
DWIDTH 6 0
BBX 4 4 1 5
BITMAP
60
90
90
60
ENDCHAR
STARTCHAR cent
ENCODING 162
SWIDTH 500 0
DWIDTH 6 0
BBX 5 8 0 -1
BITMAP
20
70
A8
A0
A0
A8
70
20
ENDCHAR
STARTCHAR sterling
ENCODING 163
SWIDTH 500 0
DWIDTH 7 0
BBX 6 8 0 0
BITMAP
30
48
40
F0
40
40
44
F8
ENDCHAR
STARTCHAR section
ENCODING 164
SWIDTH 416 0
DWIDTH 6 0
BBX 5 9 0 0
BITMAP
70
88
80
70
88
70
08
88
70
ENDCHAR
STARTCHAR bullet
ENCODING 165
SWIDTH 333 0
DWIDTH 6 0
BBX 5 5 0 1
BITMAP
70
F8
F8
F8
70
ENDCHAR
STARTCHAR paragraph
ENCODING 166
SWIDTH 583 0
DWIDTH 8 0
BBX 7 8 0 0
BITMAP
7E
94
94
94
74
14
14
3E
ENDCHAR
STARTCHAR germandbls
ENCODING 167
SWIDTH 416 0
DWIDTH 7 0
BBX 6 8 0 0
BITMAP
38
44
44
58
44
44
44
98
ENDCHAR
STARTCHAR registered
ENCODING 168
SWIDTH 500 0
DWIDTH 7 0
BBX 6 7 0 0
BITMAP
78
84
B4
B4
B4
84
78
ENDCHAR
STARTCHAR copyright
ENCODING 169
SWIDTH 500 0
DWIDTH 7 0
BBX 6 7 0 0
BITMAP
78
84
B4
A4
B4
84
78
ENDCHAR
STARTCHAR trademark
ENCODING 170
SWIDTH 500 0
DWIDTH 9 0
BBX 8 3 0 5
BITMAP
F1
5B
55
ENDCHAR
STARTCHAR acute
ENCODING 171
SWIDTH 250 0
DWIDTH 3 0
BBX 2 2 0 6
BITMAP
40
80
ENDCHAR
STARTCHAR dieresis
ENCODING 172
SWIDTH 333 0
DWIDTH 5 0
BBX 3 1 1 7
BITMAP
A0
ENDCHAR
STARTCHAR AE
ENCODING 174
SWIDTH 750 0
DWIDTH 10 0
BBX 9 8 0 0
BITMAP
0F80
1480
1400
2700
3C00
4400
4480
EF80
ENDCHAR
STARTCHAR Oslash
ENCODING 175
SWIDTH 583 0
DWIDTH 7 0
BBX 7 8 0 0
BITMAP
3A
44
4C
54
54
64
44
B8
ENDCHAR
STARTCHAR yen
ENCODING 180
SWIDTH 500 0
DWIDTH 7 0
BBX 5 8 1 0
BITMAP
88
50
F8
20
F8
20
20
20
ENDCHAR
STARTCHAR ordfeminine
ENCODING 187
SWIDTH 416 0
DWIDTH 6 0
BBX 4 6 0 2
BITMAP
70
90
90
70
00
F0
ENDCHAR
STARTCHAR ordmasculine
ENCODING 188
SWIDTH 416 0
DWIDTH 5 0
BBX 4 6 0 2
BITMAP
60
90
90
60
00
F0
ENDCHAR
STARTCHAR ae
ENCODING 190
SWIDTH 666 0
DWIDTH 9 0
BBX 8 6 0 0
BITMAP
7E
91
7F
90
91
7E
ENDCHAR
STARTCHAR oslash
ENCODING 191
SWIDTH 416 0
DWIDTH 7 0
BBX 7 6 0 0
BITMAP
3A
4C
54
64
64
B8
ENDCHAR
STARTCHAR questiondown
ENCODING 192
SWIDTH 416 0
DWIDTH 6 0
BBX 5 8 0 0
BITMAP
20
00
20
20
40
80
88
70
ENDCHAR
STARTCHAR exclamdown
ENCODING 193
SWIDTH 250 0
DWIDTH 3 0
BBX 1 8 1 0
BITMAP
80
00
80
80
80
80
80
80
ENDCHAR
STARTCHAR guillemotleft
ENCODING 199
SWIDTH 500 0
DWIDTH 6 0
BBX 5 5 0 0
BITMAP
28
50
A0
50
28
ENDCHAR
STARTCHAR guillemotright
ENCODING 200
SWIDTH 500 0
DWIDTH 6 0
BBX 5 5 1 0
BITMAP
A0
50
28
50
A0
ENDCHAR
STARTCHAR ellipsis
ENCODING 201
SWIDTH 666 0
DWIDTH 7 0
BBX 5 1 1 0
BITMAP
A8
ENDCHAR
STARTCHAR Agrave
ENCODING 203
SWIDTH 666 0
DWIDTH 8 0
BBX 7 10 0 0
BITMAP
10
08
00
10
10
28
28
7C
44
EE
ENDCHAR
STARTCHAR Atilde
ENCODING 204
SWIDTH 666 0
DWIDTH 8 0
BBX 7 10 1 0
BITMAP
14
28
00
10
10
28
28
7C
44
EE
ENDCHAR
STARTCHAR Otilde
ENCODING 205
SWIDTH 583 0
DWIDTH 6 0
BBX 5 10 0 0
BITMAP
28
50
00
70
88
88
88
88
88
70
ENDCHAR
STARTCHAR OE
ENCODING 206
SWIDTH 833 0
DWIDTH 10 0
BBX 8 8 1 0
BITMAP
7F
89
88
8E
88
88
89
7F
ENDCHAR
STARTCHAR oe
ENCODING 207
SWIDTH 666 0
DWIDTH 9 0
BBX 8 6 0 0
BITMAP
6E
91
9F
90
91
6E
ENDCHAR
STARTCHAR endash
ENCODING 208
SWIDTH 333 0
DWIDTH 4 0
BBX 3 1 0 3
BITMAP
E0
ENDCHAR
STARTCHAR emdash
ENCODING 209
SWIDTH 416 0
DWIDTH 7 0
BBX 6 1 0 3
BITMAP
FC
ENDCHAR
STARTCHAR quotedblleft
ENCODING 210
SWIDTH 416 0
DWIDTH 6 0
BBX 5 2 0 6
BITMAP
90
48
ENDCHAR
STARTCHAR quotedblright
ENCODING 211
SWIDTH 416 0
DWIDTH 6 0
BBX 5 2 1 6
BITMAP
48
90
ENDCHAR
STARTCHAR quoteleft
ENCODING 212
SWIDTH 250 0
DWIDTH 4 0
BBX 2 2 1 6
BITMAP
80
40
ENDCHAR
STARTCHAR quoteright
ENCODING 213
SWIDTH 250 0
DWIDTH 4 0
BBX 2 2 1 6
BITMAP
40
80
ENDCHAR
STARTCHAR lozenge
ENCODING 215
SWIDTH 750 0
DWIDTH 7 0
BBX 5 5 1 1
BITMAP
20
50
88
50
20
ENDCHAR
STARTCHAR ydieresis
ENCODING 216
SWIDTH 500 0
DWIDTH 7 0
BBX 7 10 0 -2
BITMAP
28
00
EE
44
28
28
10
10
20
20
ENDCHAR
STARTCHAR Ydieresis
ENCODING 217
SWIDTH 666 0
DWIDTH 6 0
BBX 6 3 0 1
BITMAP
C0
24
18
ENDCHAR
ENDFONT
